<svg xmlns="http://www.w3.org/2000/svg" viewBox="0 0 640 420" width="640" height="420" role="img" aria-label="Project card — AI ERP SaaS">
  <defs>
    <linearGradient id="bgGrad" x1="0" y1="0" x2="1" y2="1">
      <stop offset="0" stop-color="#FFFFFF"/>
      <stop offset="1" stop-color="#F8FAFC"/>
    </linearGradient>
    <linearGradient id="redGrad" x1="0" y1="0" x2="1" y2="1">
      <stop offset="0" stop-color="#E31E45"/>
      <stop offset="1" stop-color="#8E1227"/>
    </linearGradient>
    <radialGradient id="redGlow" cx="0.95" cy="0.05" r="0.5">
      <stop offset="0" stop-color="#C41E3A" stop-opacity="0.14"/>
      <stop offset="1" stop-color="#C41E3A" stop-opacity="0"/>
    </radialGradient>
    <pattern id="grid" width="32" height="32" patternUnits="userSpaceOnUse">
      <path d="M32 0H0V32" fill="none" stroke="#EEF2F7" stroke-width="1"/>
    </pattern>
    <filter id="cardShadow" x="-30%" y="-30%" width="160%" height="180%">
      <feDropShadow dx="0" dy="14" stdDeviation="20" flood-color="#0B1220" flood-opacity="0.10"/>
    </filter>
  </defs>

  <rect x="24" y="24" width="592" height="372" rx="22" fill="#FFFFFF" filter="url(#cardShadow)"/>
  <rect x="24" y="24" width="592" height="372" rx="22" fill="url(#bgGrad)"/>
  <rect x="24" y="24" width="592" height="372" rx="22" fill="url(#grid)"/>
  <rect x="24" y="24" width="592" height="372" rx="22" fill="url(#redGlow)"/>

  <rect x="24" y="24" width="592" height="372" rx="22" fill="none" stroke="#E2E8F0" stroke-width="1.5"/>

  <rect x="56" y="58" width="54" height="54" rx="14" fill="url(#redGrad)"/>
  <path d="M74 80 h18 M74 92 h10 M96 74 a2.5 2.5 0 1 1 5 0 a2.5 2.5 0 1 1 -5 0z" fill="none" stroke="#FFFFFF" stroke-width="3" stroke-linecap="round" stroke-linejoin="round"/>

  <text x="128" y="72" font-family="Inter, -apple-system, 'Segoe UI', Roboto, Arial, sans-serif" font-size="21" font-weight="700" fill="#0B1220">AI ERP SaaS</text>
  <rect x="128" y="84" width="150" height="7" rx="3.5" fill="#E2E8F0"/>
  <rect x="128" y="97" width="112" height="7" rx="3.5" fill="#EEF2F7"/>

  <g fill="#CBD5E1">
    <rect x="56" y="140" width="528" height="9" rx="4.5"/>
    <rect x="56" y="160" width="496" height="9" rx="4.5"/>
    <rect x="56" y="180" width="436" height="9" rx="4.5"/>
    <rect x="56" y="200" width="514" height="9" rx="4.5"/>
  </g>

  <g fill="#EEF2F7">
    <rect x="56" y="236" width="72" height="22" rx="11"/>
    <rect x="138" y="236" width="88" height="22" rx="11"/>
    <rect x="236" y="236" width="64" height="22" rx="11"/>
  </g>

  <path d="M56 320 C 150 296 210 344 300 312 S 480 268 584 290" fill="none" stroke="url(#redGrad)" stroke-opacity="0.5" stroke-width="2.5" stroke-linecap="round"/>
  <path d="M56 340 C 150 316 210 364 300 332 S 480 288 584 310" fill="none" stroke="#CBD5E1" stroke-width="1.5" stroke-linecap="round"/>
  <circle cx="584" cy="290" r="7" fill="url(#redGrad)"/>

  <rect x="56" y="350" width="120" height="28" rx="9" fill="#0B1220"/>
  <rect x="188" y="350" width="120" height="28" rx="9" fill="url(#redGrad)"/>
  <text x="116" y="369" text-anchor="middle" font-family="Inter, Arial, sans-serif" font-size="11" font-weight="600" fill="#FFFFFF">View Code</text>
  <text x="248" y="369" text-anchor="middle" font-family="Inter, Arial, sans-serif" font-size="11" font-weight="600" fill="#FFFFFF">Live Demo</text>
</svg>